<svg xmlns="http://www.w3.org/2000/svg" width="750" height="410" viewBox="0 0 750 410">
  <style>
    .prompt { font: 600 15px 'SFMono-Regular', Consolas, 'Liberation Mono', Menlo, monospace; fill: #3fb950; }
    .content { font: 400 15px 'SFMono-Regular', Consolas, 'Liberation Mono', Menlo, monospace; fill: #c9d1d9; }
    .bold { font-weight: 600; fill: #f0f6fc; }
    .label { font: 400 12px 'SFMono-Regular', Consolas, 'Liberation Mono', Menlo, monospace; fill: #8b949e; }
    .pill-text { font: 400 12px 'SFMono-Regular', Consolas, 'Liberation Mono', Menlo, monospace; }
    .pill-green { fill: #161b22; stroke: #3fb950; stroke-width: 1; rx: 4; }
    .pill-blue { fill: #161b22; stroke: #58a6ff; stroke-width: 1; rx: 4; }
  </style>

  <!-- Background -->
  <rect width="750" height="410" fill="#0d1117" rx="8"/>
  <rect width="750" height="410" fill="none" stroke="#30363d" rx="8"/>

  <!-- Title bar -->
  <circle cx="20" cy="16" r="6" fill="#f85149"/>
  <circle cx="40" cy="16" r="6" fill="#d29922"/>
  <circle cx="60" cy="16" r="6" fill="#3fb950"/>
  <line x1="0" y1="32" x2="750" y2="32" stroke="#21262d"/>

  <!-- ── whoami ── -->
  <text x="20" y="56" class="prompt">➜ whoami</text>
  <text x="20" y="80" class="content"><tspan class="bold">rene-dekart</tspan></text>

  <!-- ── uptime ── -->
  <text x="20" y="112" class="prompt">➜ uptime</text>
  <text x="20" y="136" class="content"><tspan class="bold">6</tspan> years of commercial experience</text>

  <!-- ── ls ~/skills/ ── -->
  <text x="20" y="168" class="prompt">➜ ls ~/skills/</text>

  <!-- [backend] -->
  <text x="20" y="194" class="label">[backend]</text>
  <rect x="20"  y="202" width="56" height="24" class="pill-green"/>
  <text x="30" y="219" class="pill-text" fill="#3fb950">Java</text>
  <rect x="84"  y="202" width="72" height="24" class="pill-green"/>
  <text x="94" y="219" class="pill-text" fill="#3fb950">Python</text>
  <rect x="164" y="202" width="104" height="24" class="pill-green"/>
  <text x="174" y="219" class="pill-text" fill="#3fb950">TypeScript</text>

  <!-- [frameworks] -->
  <text x="20" y="250" class="label">[frameworks]</text>
  <rect x="20"  y="258" width="108" height="24" class="pill-green"/>
  <text x="30" y="275" class="pill-text" fill="#3fb950">Spring Boot</text>
  <rect x="136" y="258" width="76" height="24" class="pill-green"/>
  <text x="146" y="275" class="pill-text" fill="#3fb950">FastAPI</text>

  <!-- [blockchain] -->
  <text x="20" y="306" class="label">[blockchain]</text>
  <rect x="20" y="314" width="162" height="24" class="pill-green"/>
  <text x="30" y="331" class="pill-text" fill="#3fb950">Hyperledger Fabric</text>

  <!-- [database] -->
  <text x="20" y="362" class="label">[database]</text>
  <rect x="20"  y="370" width="100" height="24" class="pill-blue"/>
  <text x="30" y="387" class="pill-text" fill="#58a6ff">PostgreSQL</text>
  <rect x="128" y="370" width="124" height="24" class="pill-blue"/>
  <text x="138" y="387" class="pill-text" fill="#58a6ff">Elasticsearch</text>
</svg>